<svg width="520" height="560" viewBox="0 0 520 560" fill="none" xmlns="http://www.w3.org/2000/svg">
  <defs>
    <linearGradient id="bgGlow" x1="0" y1="0" x2="1" y2="1">
      <stop offset="0%" stop-color="#8CFFAB" stop-opacity="0.4"/>
      <stop offset="100%" stop-color="#3BCC63" stop-opacity="0"/>
    </linearGradient>
    <linearGradient id="shirt" x1="0" y1="0" x2="0" y2="1">
      <stop offset="0%" stop-color="#49D9D6"/>
      <stop offset="100%" stop-color="#22B8BC"/>
    </linearGradient>
    <linearGradient id="pants" x1="0" y1="0" x2="1" y2="1">
      <stop offset="0%" stop-color="#7364F4"/>
      <stop offset="100%" stop-color="#4631C9"/>
    </linearGradient>
    <linearGradient id="skin" x1="0" y1="0" x2="0" y2="1">
      <stop offset="0%" stop-color="#D7966C"/>
      <stop offset="100%" stop-color="#C98258"/>
    </linearGradient>
  </defs>

  <circle cx="260" cy="280" r="220" fill="url(#bgGlow)"/>

  <g transform="translate(130 48)">
    <rect x="58" y="0" width="180" height="180" rx="14" fill="#7A4C2A"/>
    <rect x="58" y="62" width="180" height="118" rx="12" fill="url(#skin)"/>
    <rect x="92" y="86" width="34" height="20" fill="#fff"/>
    <rect x="170" y="86" width="34" height="20" fill="#fff"/>
    <rect x="100" y="90" width="14" height="12" fill="#5A5DFF"/>
    <rect x="178" y="90" width="14" height="12" fill="#5A5DFF"/>
    <rect x="134" y="116" width="28" height="16" fill="#B46A53"/>

    <rect x="36" y="184" width="224" height="150" rx="16" fill="url(#shirt)"/>
    <rect x="0" y="188" width="64" height="162" rx="14" fill="url(#skin)"/>
    <rect x="256" y="196" width="58" height="150" rx="14" fill="url(#skin)" transform="rotate(25 256 196)"/>

    <rect x="62" y="334" width="82" height="162" rx="14" fill="url(#pants)"/>
    <rect x="156" y="334" width="82" height="162" rx="14" fill="url(#pants)"/>
  </g>

  <g transform="translate(350 190) rotate(24)">
    <rect x="0" y="0" width="22" height="170" rx="10" fill="#8A623D"/>
    <rect x="-50" y="-18" width="120" height="28" rx="8" fill="#A8ADB3"/>
    <rect x="42" y="-32" width="48" height="56" rx="8" fill="#868D95"/>
  </g>
</svg>
